<svg width="182" height="244" viewBox="0 0 182 244" fill="none" xmlns="http://www.w3.org/2000/svg">
<path d="M-111.649 153.115L-26.7454 235.94C-21.9827 240.586 -15.5717 243.152 -8.92285 243.074C-2.27396 242.995 4.06821 240.279 8.70845 235.522C13.3487 230.765 15.9069 224.358 15.8203 217.709C15.7774 214.417 15.0865 211.165 13.787 208.138C12.4875 205.111 10.6049 202.369 8.24664 200.069L-37.3449 155.594C-40.2717 152.742 -42.6081 149.342 -44.2205 145.589C-45.8328 141.835 -46.6895 137.801 -46.7415 133.717C-46.7934 129.634 -46.0396 125.581 -44.5232 121.792C-43.0068 118.002 -40.7576 114.549 -37.9042 111.631C-35.0559 108.715 -31.6605 106.389 -27.9116 104.786C-24.1628 103.183 -20.134 102.335 -16.0553 102.289C-11.9767 102.244 -7.92792 103.002 -4.14033 104.521C-0.352735 106.04 3.09955 108.289 6.01943 111.141L37.5099 141.86C39.8682 144.16 42.6559 145.975 45.7139 147.199C48.7719 148.423 52.0403 149.033 55.3325 148.994C58.6247 148.955 61.8762 148.268 64.9014 146.973C67.9266 145.677 70.6662 143.798 72.9638 141.443L81.3361 132.86C85.9763 128.103 88.5345 121.696 88.4479 115.047C88.3613 108.398 85.637 102.053 80.8743 97.4068L49.3838 66.6876C46.4582 63.8371 44.1224 60.4386 42.5101 56.6864C40.8978 52.9342 40.0405 48.902 39.9874 44.8202C39.9342 40.7384 40.6862 36.6872 42.2002 32.8982C43.7143 29.1092 45.9608 25.6568 48.8113 22.7383C51.6589 19.8192 55.0545 17.4905 58.804 15.8853C62.5536 14.28 66.5836 13.4297 70.6639 13.3829C74.7442 13.3362 78.7947 14.0938 82.584 15.6125C86.3733 17.1313 89.8271 19.3814 92.7481 22.2344L138.34 66.7091C143.102 71.3552 149.513 73.9214 156.162 73.8431C162.811 73.7648 169.153 71.0485 173.794 66.2918L174.057 66.0214C176.369 63.6691 178.194 60.8829 179.425 57.8226C180.657 54.7623 181.272 51.4882 181.236 48.188C181.199 44.8878 180.511 41.6266 179.211 38.5913C177.911 35.5561 176.025 32.8065 173.661 30.5005L88.7574 -52.3237C85.0242 -55.9663 80.3988 -58.5628 75.3464 -59.8519C70.294 -61.141 64.9929 -61.0773 59.9763 -59.6671L-66.5546 -24.1483C-71.5711 -22.7441 -76.1271 -20.042 -79.7636 -16.3142C-83.4 -12.5865 -85.9884 -7.96482 -87.2677 -2.91504L-119.704 124.525C-120.993 129.575 -120.928 134.877 -119.513 139.897C-118.099 144.916 -115.387 149.476 -111.649 153.115Z" fill="#1C1D87"/>
</svg>
