<svg width="120" height="126" viewBox="0 0 120 126" fill="none" xmlns="http://www.w3.org/2000/svg">
<path d="M-35.2857 77.9859L9.63999 121.811C12.1601 124.27 15.5524 125.627 19.0705 125.586C22.5887 125.545 25.9446 124.107 28.3999 121.59C30.8552 119.073 32.2088 115.683 32.163 112.165C32.1403 110.423 31.7747 108.702 31.0871 107.1C30.3995 105.499 29.4034 104.048 28.1555 102.831L4.03144 79.2975C2.48279 77.7886 1.24651 75.9895 0.393344 74.0032C-0.45982 72.0169 -0.913109 69.8823 -0.940596 67.7217C-0.968085 65.561 -0.569223 63.4167 0.233154 61.4114C1.03554 59.4061 2.22569 57.5792 3.73551 56.0352C5.24262 54.4921 7.03929 53.2614 9.02293 52.4133C11.0066 51.5651 13.1383 51.1162 15.2965 51.0921C17.4547 51.068 19.597 51.4692 21.6012 52.2728C23.6053 53.0764 25.432 54.2667 26.977 55.7757L43.6398 72.0303C44.8876 73.2476 46.3627 74.2074 47.9808 74.8551C49.5989 75.5028 51.3283 75.8256 53.0703 75.8051C54.8123 75.7846 56.5328 75.4212 58.1336 74.7356C59.7343 74.05 61.1839 73.0557 62.3997 71.8094L66.8297 67.2681C69.285 64.7512 70.6387 61.3607 70.5928 57.8426C70.547 54.3245 69.1055 50.9669 66.5854 48.5085L49.9226 32.254C48.3746 30.7457 47.1387 28.9474 46.2855 26.962C45.4324 24.9766 44.9788 22.843 44.9507 20.6831C44.9225 18.5233 45.3204 16.3797 46.1216 14.3748C46.9227 12.3699 48.1114 10.5431 49.6197 8.99883C51.1265 7.45424 52.9232 6.22204 54.9072 5.37266C56.8913 4.52327 59.0237 4.07335 61.1827 4.04859C63.3417 4.02383 65.485 4.42472 67.49 5.22835C69.4951 6.03198 71.3226 7.2226 72.8682 8.73218L96.9923 32.2653C99.5124 34.7237 102.905 36.0816 106.423 36.0402C109.941 35.9987 113.297 34.5615 115.752 32.0445L115.892 31.9015C117.115 30.6568 118.08 29.1825 118.732 27.5632C119.384 25.9439 119.71 24.2114 119.69 22.4652C119.671 20.7189 119.307 18.9933 118.619 17.3872C117.931 15.7812 116.933 14.3263 115.682 13.1061L70.7566 -30.7191C68.7812 -32.6465 66.3338 -34.0204 63.6604 -34.7025C60.987 -35.3846 58.182 -35.3509 55.5275 -34.6048L-11.4244 -15.8105C-14.0788 -15.0675 -16.4896 -13.6377 -18.4138 -11.6652C-20.3379 -9.69275 -21.7075 -7.24726 -22.3844 -4.57525L-39.5477 62.8579C-40.2299 65.5299 -40.1951 68.3354 -39.4468 70.9915C-38.6985 73.6475 -37.2632 76.0601 -35.2857 77.9859Z" fill="#1C1D87"/>
</svg>
