<svg width="290" height="243" viewBox="0 0 290 243" fill="none" xmlns="http://www.w3.org/2000/svg">
<path d="M122.748 147.899C123.518 148.204 124.348 148.329 125.173 148.266C125.999 148.203 126.799 147.953 127.513 147.535C128.227 147.116 128.837 146.541 129.296 145.851C129.754 145.162 130.05 144.377 130.161 143.556L133.472 118.502C134.419 113.528 133.914 108.385 132.017 103.687C130.12 98.9894 126.912 94.9365 122.776 92.0129C118.64 89.0892 113.751 87.4186 108.694 87.2008C103.637 86.983 98.6256 88.2272 94.2597 90.7847C89.8937 93.3421 86.3577 97.1046 84.0745 101.622C81.7912 106.14 80.8574 111.221 81.3847 116.259C81.912 121.296 83.8781 126.077 87.0479 130.029C90.2177 133.981 94.4569 136.937 99.2588 138.543L122.748 147.899Z" fill="#FF7800"/>
<path d="M355.398 182.881L295.447 80.5364C292.084 74.7953 286.581 70.6237 280.149 68.9391C273.716 67.2545 266.881 68.1951 261.147 71.5538C255.414 74.9126 251.25 80.4144 249.574 86.8489C248.744 90.035 248.549 93.3541 249.001 96.6169C249.453 99.8796 250.543 103.022 252.208 105.865L284.4 160.822C286.467 164.346 287.821 168.243 288.382 172.29C288.943 176.337 288.701 180.454 287.67 184.405C286.639 188.357 284.84 192.065 282.374 195.319C279.909 198.572 276.826 201.306 273.302 203.364C269.783 205.422 265.893 206.767 261.854 207.32C257.814 207.873 253.705 207.625 249.759 206.589C245.814 205.553 242.111 203.751 238.86 201.283C235.61 198.816 232.876 195.733 230.815 192.21L208.58 154.251C206.915 151.408 204.707 148.921 202.082 146.931C199.457 144.941 196.466 143.488 193.281 142.653C190.096 141.819 186.779 141.621 183.519 142.07C180.259 142.518 177.119 143.605 174.28 145.268L163.935 151.328C158.201 154.687 154.038 160.189 152.361 166.623C150.685 173.058 151.632 179.898 154.995 185.639L177.23 223.598C179.297 227.122 180.65 231.017 181.211 235.062C181.773 239.107 181.532 243.223 180.503 247.173C179.474 251.123 177.676 254.831 175.213 258.084C172.75 261.337 169.67 264.072 166.149 266.131C162.63 268.193 158.739 269.539 154.698 270.095C150.657 270.65 146.546 270.403 142.599 269.368C138.652 268.333 134.946 266.531 131.694 264.063C128.442 261.595 125.707 258.511 123.646 254.987L91.4535 200.03C88.0906 194.289 82.5876 190.117 76.1552 188.433C69.7228 186.748 62.8878 187.689 57.1539 191.047L56.8281 191.238C53.9758 192.895 51.4791 195.098 49.481 197.723C47.483 200.349 46.0231 203.343 45.185 206.535C44.3468 209.727 44.147 213.054 44.5969 216.325C45.0469 219.597 46.1378 222.747 47.807 225.597L107.758 327.942C110.393 332.442 114.166 336.171 118.697 338.751C123.228 341.332 128.357 342.674 133.568 342.642L264.988 341.884C270.197 341.858 275.306 340.458 279.799 337.826C284.293 335.194 288.012 331.422 290.583 326.891L355.597 212.584C358.177 208.055 359.517 202.925 359.482 197.71C359.447 192.495 358.038 187.38 355.398 182.881Z" fill="#FF7800"/>
</svg>
