<svg width="93" height="94" viewBox="0 0 93 94" fill="none" xmlns="http://www.w3.org/2000/svg">
<path d="M127.723 54.1L90.8455 90.0742C88.7768 92.0922 85.9922 93.2068 83.1043 93.1728C80.2164 93.1388 77.4617 91.959 75.4463 89.8929C73.4308 87.8269 72.3197 85.0438 72.3573 82.1559C72.3759 80.726 72.676 79.3134 73.2404 77.9987C73.8049 76.6841 74.6226 75.4932 75.6469 74.494L95.4493 55.1766C96.7205 53.938 97.7353 52.4613 98.4356 50.8308C99.136 49.2003 99.5081 47.4481 99.5306 45.6745C99.5532 43.901 99.2258 42.1408 98.5671 40.4947C97.9085 38.8486 96.9315 37.349 95.6922 36.0816C94.4551 34.815 92.9803 33.8047 91.352 33.1085C89.7237 32.4123 87.9738 32.0438 86.2023 32.024C84.4307 32.0042 82.6722 32.3336 81.0271 32.9932C79.382 33.6529 77.8825 34.6299 76.6142 35.8686L62.9365 49.2113C61.9122 50.2105 60.7014 50.9984 59.3732 51.5301C58.0449 52.0617 56.6253 52.3267 55.1954 52.3099C53.7654 52.293 52.3532 51.9947 51.0392 51.432C49.7252 50.8692 48.5353 50.053 47.5373 49.03L43.9009 45.3022C41.8854 43.2362 40.7743 40.4531 40.8119 37.5652C40.8495 34.6774 42.0328 31.9213 44.1015 29.9033L57.7792 16.5606C59.0499 15.3225 60.0644 13.8464 60.7647 12.2167C61.465 10.5869 61.8374 8.83554 61.8605 7.06265C61.8836 5.28975 61.557 3.53013 60.8993 1.88441C60.2417 0.238678 59.2659 -1.26087 58.0278 -2.5285C56.791 -3.79639 55.3162 -4.80785 53.6876 -5.50507C52.059 -6.20229 50.3085 -6.57161 48.5363 -6.59194C46.7641 -6.61227 45.0047 -6.28319 43.3589 -5.62353C41.713 -4.96386 40.2129 -3.98653 38.9441 -2.74738L19.1417 16.57C17.0731 18.588 14.2885 19.7026 11.4006 19.6686C8.51268 19.6346 5.75801 18.4548 3.74255 16.3887L3.62802 16.2713C2.62378 15.2496 1.83142 14.0394 1.29637 12.7102C0.761318 11.3809 0.494115 9.95884 0.510092 8.52543C0.526068 7.09201 0.8249 5.6755 1.38946 4.35716C1.95402 3.03882 2.77318 1.84458 3.79996 0.842968L40.6775 -35.1312C42.299 -36.7134 44.308 -37.8411 46.5025 -38.4011C48.697 -38.961 50.9995 -38.9333 53.1784 -38.3208L108.136 -22.8934C110.315 -22.2835 112.294 -21.1099 113.874 -19.4907C115.453 -17.8716 116.577 -15.8642 117.133 -13.6709L131.222 41.6821C131.782 43.8754 131.753 46.1783 131.139 48.3586C130.524 50.5388 129.346 52.5192 127.723 54.1Z" fill="#1C1D87"/>
</svg>
