<svg width="16" height="10" viewBox="0 0 16 10" fill="none" xmlns="http://www.w3.org/2000/svg">
<path d="M15.8351 4.90782L16 4.6387L15.8351 4.36944C15.8075 4.3245 15.1442 3.25391 13.8556 2.18103C12.1417 0.754245 10.1226 0 8.01643 0C5.9108 0 3.88674 0.753842 2.16305 2.17996C0.867073 3.2523 0.196275 4.32208 0.16837 4.36716L0 4.6387L0.16837 4.91024C0.196275 4.95532 0.867073 6.0251 2.16305 7.09744C3.88674 8.52356 5.9108 9.2774 8.01643 9.2774C10.1226 9.2774 12.1417 8.52316 13.8556 7.09637C15.1442 6.02349 15.8075 4.9529 15.8351 4.90782ZM13.169 6.3271C11.6272 7.60108 9.89359 8.24692 8.01643 8.24692C6.1386 8.24692 4.39936 7.60067 2.84713 6.32589C2.04432 5.66663 1.50004 4.99905 1.23346 4.6387C1.50017 4.27808 2.04446 3.61064 2.84713 2.95138C4.39936 1.67673 6.13847 1.03035 8.01643 1.03035C9.89359 1.03035 11.6271 1.67632 13.169 2.95017C13.9682 3.6105 14.5077 4.27902 14.7707 4.6387C14.5075 4.99852 13.968 5.66703 13.169 6.3271Z" fill="#302A97"/>
<path d="M5.40541 4.63869C5.40541 3.20792 6.57024 2.04309 8.00101 2.04309C9.43178 2.04309 10.5966 3.20792 10.5966 4.63869C10.5966 6.06946 9.43178 7.23428 8.00101 7.23428C6.57024 7.23428 5.40541 6.06946 5.40541 4.63869Z" stroke="#FF7800"/>
</svg>
