<svg width="185" height="177" viewBox="0 0 185 177" fill="none" xmlns="http://www.w3.org/2000/svg">
<path d="M135.348 132.065C159.66 107.752 159.66 68.3341 135.348 44.0216C111.035 19.7092 71.617 19.7092 47.3045 44.0216C22.992 68.3341 22.992 107.752 47.3045 132.065C71.617 156.377 111.035 156.377 135.348 132.065Z" fill="#F9EEDD"/>
<path opacity="0.73" d="M142.173 103.007V123.938C139.887 127.171 137.3 130.18 134.447 132.924V103.007H134.435V102.936C134.4 102.781 130.644 99.6673 127.755 97.3023V95.9983L131.25 95.0983C132.678 94.7304 134.187 94.8476 135.541 95.4313C136.147 95.6933 136.777 95.9423 137.407 96.1443V98.8783C139.06 100.151 140.647 101.508 142.161 102.943V103.014L142.173 103.007Z" fill="white"/>
<path d="M2.72083 8.16728L20.9898 51.0323L34.3428 41.8973L42.0808 53.1413L43.4808 34.1743L59.6408 24.3273L2.72083 8.16728Z" fill="#FFB031"/>
<path d="M37.3018 39.8693L20.9898 51.0333L34.3428 41.8983L42.0808 53.1423L43.4808 34.1753L17.7308 18.8393L37.3018 39.8693Z" fill="#FF9433"/>
<path d="M43.1348 38.8243L17.7268 18.8393L43.4768 34.1753L43.1348 38.8243Z" fill="#FF7733"/>
<path d="M42.4098 58.4883C42.2658 57.6533 42.0828 56.8203 41.8668 56.0113L43.1198 55.6763C43.3458 56.5223 43.5368 57.3943 43.6878 58.2673L42.4098 58.4883Z" fill="#FF8600"/>
<path d="M27.2798 87.6043C25.4224 87.487 23.6274 86.888 22.0718 85.8663L22.7888 84.7863C24.1565 85.6827 25.7338 86.2079 27.3658 86.3103L27.2798 87.6043ZM32.6668 86.5463L32.0948 85.3833C33.5704 84.621 34.8869 83.5841 35.9738 82.3283L36.9388 83.1943C35.742 84.5742 34.2918 85.7121 32.6668 86.5463V86.5463ZM18.4668 81.7253C17.7387 80.2608 17.3562 78.6488 17.3488 77.0133C17.3488 76.8823 17.3488 76.7503 17.3568 76.6193L17.3728 76.3383L18.6658 76.4383L18.6528 76.6743C18.6528 76.7913 18.6458 76.9053 18.6458 77.0183C18.6526 78.4548 18.9892 79.8705 19.6298 81.1563L18.4668 81.7253ZM68.6418 81.4253L68.6358 80.1253C70.3248 80.1173 72.0628 80.0483 73.8018 79.9203L73.9018 81.2133C72.1248 81.3513 70.3568 81.4213 68.6378 81.4293L68.6418 81.4253ZM63.3818 81.2553L62.5538 81.1913C60.9598 81.0583 59.5148 80.8793 58.1378 80.6403L58.3578 79.3623C59.6978 79.5943 61.1058 79.7693 62.6578 79.8993L63.4688 79.9603L63.3818 81.2553ZM79.1218 80.6653L78.9468 79.3803C80.6148 79.1533 82.3338 78.8693 84.0568 78.5373L84.3018 79.8103C82.5528 80.1513 80.8098 80.4393 79.1178 80.6693L79.1218 80.6653ZM52.9848 79.3543C51.5137 78.8596 50.0916 78.2295 48.7368 77.4723C48.5368 77.3583 48.3308 77.2393 48.1308 77.1183L48.8008 76.0073C48.9898 76.1213 49.1798 76.2333 49.3728 76.3413C50.6581 77.0599 52.0072 77.6578 53.4028 78.1273L52.9848 79.3543ZM40.0428 78.8383L38.9098 78.1983C39.7566 76.7221 40.4723 75.1745 41.0488 73.5733L42.2688 74.0133C41.6674 75.6848 40.9212 77.3005 40.0388 78.8423L40.0428 78.8383ZM89.4238 78.6983L89.1188 77.4383C90.7408 77.0443 92.4288 76.5973 94.1348 76.1093L94.4918 77.3563C92.7678 77.8493 91.0638 78.2983 89.4238 78.6983ZM99.5008 75.8263L99.1008 74.5923C100.749 74.059 102.389 73.5013 104.021 72.9193L104.455 74.1423C102.813 74.725 101.161 75.2863 99.5008 75.8263ZM43.8008 74.1173C42.5697 73.1886 41.28 72.3401 39.9398 71.5773L39.5058 71.3473L40.0998 70.1943C40.2548 70.2733 40.4088 70.3563 40.5618 70.4393C41.9497 71.23 43.2858 72.1085 44.5618 73.0693L43.8008 74.1173ZM20.4828 72.1673L19.5758 71.2403C20.9304 70.0048 22.5704 69.1248 24.3488 68.6793L24.7848 69.9023C23.1863 70.2951 21.7081 71.0727 20.4788 72.1673H20.4828ZM34.7688 69.6353C33.2937 69.3042 31.7866 69.1365 30.2748 69.1353L29.7488 69.1413L29.7168 67.8413C31.5101 67.7965 33.3022 67.9718 35.0528 68.3633L34.7688 69.6353ZM43.6468 68.8713L42.3698 68.6443C42.6665 66.9677 42.8203 65.2689 42.8298 63.5663L44.1298 63.5723C44.1179 65.3492 43.955 67.1219 43.6428 68.8713H43.6468Z" fill="#FF9433"/>
<path d="M109.419 72.3133L108.958 71.1013C109.765 70.7933 110.571 70.4816 111.376 70.1663L111.847 71.3753C111.039 71.6906 110.23 72.0033 109.419 72.3133Z" fill="#00C8B7"/>
<path d="M150.246 103.919C149.921 103.906 149.613 103.772 149.382 103.544C149.151 103.315 149.014 103.008 148.998 102.683C148.983 102.358 149.089 102.04 149.297 101.79C149.505 101.539 149.799 101.376 150.121 101.332C157.989 100.556 165.257 96.7838 170.421 90.7973C170.655 90.5703 170.965 90.4394 171.291 90.4304C171.616 90.4215 171.934 90.5352 172.179 90.749C172.425 90.9627 172.582 91.2611 172.618 91.5849C172.655 91.9086 172.568 92.2343 172.376 92.4973C166.778 98.9861 158.898 103.073 150.369 103.91C150.329 103.916 150.288 103.919 150.246 103.919Z" fill="#FFB031"/>
<path d="M134.44 103.008L89.2599 129.651L44.0809 103.008C44.0797 102.984 44.0821 102.959 44.0879 102.935C44.1249 102.766 46.6189 100.684 50.4219 97.5943C50.4579 97.5653 50.4878 97.5363 50.5218 97.5063C62.9968 87.3773 89.2568 66.6343 89.2568 66.6343C89.2568 66.6343 115.518 87.3773 127.993 97.5063C131.855 100.64 134.393 102.758 134.43 102.935C134.437 102.959 134.44 102.984 134.44 103.008Z" fill="#7A4C08"/>
<path d="M107.841 44.5693H59.0948C57.0868 44.5693 55.1611 45.3669 53.7413 46.7868C52.3215 48.2066 51.5238 50.1323 51.5238 52.1403V125.84C51.5241 127.848 52.3218 129.774 53.7417 131.193C55.1615 132.613 57.087 133.41 59.0948 133.41H120.175C122.183 133.41 124.108 132.613 125.528 131.193C126.948 129.774 127.746 127.848 127.746 125.84V64.4743L107.841 44.5693Z" fill="white"/>
<path d="M107.841 56.9043C107.841 57.8985 108.037 58.8829 108.417 59.8014C108.798 60.7199 109.355 61.5545 110.058 62.2574C110.761 62.9604 111.596 63.518 112.515 63.8983C113.433 64.2787 114.418 64.4744 115.412 64.4743H127.746L107.846 44.5743L107.841 56.9043Z" fill="#E6E8E8"/>
<path d="M82.5688 57.0273H65.7518C64.2623 57.0273 63.0548 58.2348 63.0548 59.7243V76.5413C63.0548 78.0308 64.2623 79.2383 65.7518 79.2383H82.5688C84.0583 79.2383 85.2658 78.0308 85.2658 76.5413V59.7243C85.2658 58.2348 84.0583 57.0273 82.5688 57.0273Z" fill="#FF9433"/>
<path d="M105.61 85.4113H65.2538C64.6775 85.4113 64.1248 85.6402 63.7173 86.0477C63.3098 86.4553 63.0808 87.008 63.0808 87.5843V87.5843C63.0808 88.1606 63.3098 88.7133 63.7173 89.1208C64.1248 89.5284 64.6775 89.7573 65.2538 89.7573H105.61C106.186 89.7573 106.739 89.5284 107.146 89.1208C107.554 88.7133 107.783 88.1606 107.783 87.5843V87.5843C107.783 87.008 107.554 86.4553 107.146 86.0477C106.739 85.6402 106.186 85.4113 105.61 85.4113V85.4113Z" fill="#D9DBDB"/>
<path d="M105.61 96.2353H65.2538C64.6775 96.2353 64.1248 96.4642 63.7173 96.8717C63.3098 97.2793 63.0808 97.832 63.0808 98.4083V98.4083C63.0808 98.9846 63.3098 99.5373 63.7173 99.9448C64.1248 100.352 64.6775 100.581 65.2538 100.581H105.61C106.186 100.581 106.739 100.352 107.146 99.9448C107.554 99.5373 107.783 98.9846 107.783 98.4083V98.4083C107.783 97.832 107.554 97.2793 107.146 96.8717C106.739 96.4642 106.186 96.2353 105.61 96.2353V96.2353Z" fill="#D9DBDB"/>
<path d="M87.2808 106.735H65.2538C64.6775 106.735 64.1248 106.964 63.7173 107.372C63.3098 107.779 63.0808 108.332 63.0808 108.908V108.908C63.0808 109.485 63.3098 110.037 63.7173 110.445C64.1248 110.852 64.6775 111.081 65.2538 111.081H87.2808C87.8571 111.081 88.4098 110.852 88.8174 110.445C89.2249 110.037 89.4538 109.485 89.4538 108.908V108.908C89.4538 108.623 89.3976 108.34 89.2884 108.077C89.1792 107.813 89.0191 107.574 88.8174 107.372C88.6156 107.17 88.376 107.01 88.1124 106.901C87.8487 106.791 87.5662 106.735 87.2808 106.735V106.735Z" fill="#D9DBDB"/>
<path d="M134.445 103.007V146.351C134.441 147.81 133.859 149.208 132.828 150.24C131.796 151.271 130.398 151.853 128.939 151.856H49.5768C48.1194 151.852 46.7231 151.27 45.6938 150.238C44.6646 149.207 44.0863 147.809 44.0858 146.351V103.007L89.2648 129.645L134.445 103.007Z" fill="#FFB031"/>
<path d="M132.918 150.131L103.839 121.052L89.2649 129.645L74.6859 121.045L45.6099 150.13C46.1191 150.674 46.7342 151.107 47.4173 151.404C48.1004 151.701 48.837 151.855 49.5819 151.856H128.944C129.689 151.854 130.425 151.7 131.109 151.403C131.792 151.107 132.408 150.674 132.918 150.131V150.131Z" fill="#FF9433"/>
<path d="M143.57 43.5063C137.227 44.1732 131.319 47.0434 126.874 51.6173C122.429 56.1911 119.729 62.1789 119.244 68.5383C118.788 74.709 120.469 80.8487 124.005 85.9263C124.626 86.836 125.009 87.8872 125.118 88.9833C125.228 90.0795 125.061 91.1856 124.632 92.2003L122.487 97.3643L131.254 95.0913C132.681 94.7198 134.192 94.8366 135.546 95.4233C139.352 97.0693 143.486 97.8212 147.628 97.6211C151.771 97.421 155.812 96.2743 159.443 94.269C163.073 92.2637 166.196 89.4532 168.571 86.0532C170.946 82.6532 172.51 78.7542 173.143 74.6556C173.777 70.5569 173.463 66.3675 172.225 62.4092C170.987 58.4509 168.859 54.8288 166.003 51.8211C163.148 48.8134 159.641 46.5 155.752 45.0587C151.863 43.6173 147.696 43.0862 143.57 43.5063V43.5063Z" fill="#FF9433"/>
<path d="M146.986 84.2283L148.478 82.7373C148.478 82.7373 147.293 79.9443 152.261 75.2373C155.217 72.4373 155.879 69.7203 155.638 67.5023C155.435 65.769 154.653 64.1548 153.419 62.9208C152.185 61.6868 150.571 60.9052 148.838 60.7023C146.619 60.4623 143.905 61.1233 141.103 64.0803C136.394 69.0473 133.603 67.8623 133.603 67.8623L132.111 69.3543L146.986 84.2283Z" fill="white"/>
<path d="M135.477 75.1183C134.895 75.91 134.617 76.8838 134.691 77.8632C134.766 78.8427 135.189 79.763 135.884 80.4575C136.578 81.152 137.499 81.5748 138.478 81.6492C139.458 81.7236 140.431 81.4448 141.223 80.8633L135.477 75.1183Z" fill="white"/>
<path d="M156.681 62.5133L155.752 63.4423C155.026 62.2879 154.047 61.314 152.889 60.5943L153.825 59.6573C154.011 59.4628 154.234 59.3075 154.481 59.2004C154.727 59.0933 154.993 59.0365 155.262 59.0335C155.531 59.0305 155.798 59.0813 156.047 59.1829C156.296 59.2845 156.523 59.4348 156.713 59.6251C156.903 59.8153 157.054 60.0417 157.155 60.2908C157.257 60.54 157.308 60.8069 157.305 61.076C157.302 61.345 157.245 61.6107 157.138 61.8576C157.031 62.1044 156.875 62.3273 156.681 62.5133V62.5133Z" fill="white"/>
<path d="M145.584 43.3903C149.043 44.4222 152.217 46.2391 154.859 48.6993C157.501 51.1595 159.539 54.1965 160.814 57.5736C162.089 60.9508 162.567 64.5768 162.211 68.1691C161.854 71.7613 160.673 75.2228 158.759 78.2836C156.846 81.3444 154.251 83.9219 151.177 85.8152C148.104 87.7084 144.634 88.8663 141.04 89.1985C137.445 89.5307 133.823 89.0284 130.454 87.7305C127.085 86.4327 124.062 84.3745 121.62 81.7163C122.288 83.1879 123.086 84.5968 124.005 85.9263C124.626 86.836 125.009 87.8872 125.118 88.9833C125.228 90.0795 125.061 91.1856 124.632 92.2003L122.487 97.3643L131.254 95.0913C132.681 94.7198 134.192 94.8366 135.546 95.4233C139.273 97.036 143.316 97.7914 147.374 97.6338C151.433 97.4762 155.404 96.4096 158.995 94.5126C162.587 92.6157 165.706 89.9368 168.125 86.6735C170.543 83.4102 172.197 79.6457 172.967 75.6576C173.736 71.6696 173.6 67.5597 172.57 63.6311C171.539 59.7025 169.64 56.0553 167.012 52.9585C164.384 49.8617 161.094 47.3944 157.386 45.7384C153.677 44.0823 149.644 43.2799 145.584 43.3903V43.3903Z" fill="#EC7D19"/>
<path d="M4.26883 20.8783L10.1948 34.4783C10.2665 34.6432 10.3049 34.8206 10.3079 35.0004C10.3109 35.1802 10.2784 35.3588 10.2123 35.526C10.1462 35.6932 10.0477 35.8457 9.9225 35.9748C9.79733 36.1039 9.64791 36.207 9.48282 36.2783L9.27182 36.3693C9.10624 36.4406 8.9282 36.4785 8.74791 36.4807C8.56763 36.483 8.38867 36.4496 8.22136 36.3824C8.05406 36.3152 7.9017 36.2155 7.77306 36.0892C7.64442 35.9629 7.54204 35.8123 7.47182 35.6463L1.75783 21.9563C1.68615 21.7862 1.64969 21.6033 1.65065 21.4187C1.65162 21.2341 1.69 21.0516 1.76346 20.8822C1.83692 20.7129 1.94394 20.5602 2.07807 20.4333C2.21219 20.3065 2.37064 20.2082 2.54383 20.1443V20.1443C2.87073 20.0235 3.23143 20.0322 3.55211 20.1687C3.87279 20.3051 4.1292 20.559 4.26883 20.8783Z" fill="#FFB031"/>
<path d="M27.4838 116.575C26.6223 116.575 25.7802 116.831 25.0638 117.309C24.3475 117.788 23.7892 118.468 23.4595 119.264C23.1298 120.06 23.0434 120.936 23.2114 121.781C23.3794 122.626 23.7942 123.402 24.4033 124.011C25.0124 124.62 25.7885 125.035 26.6334 125.203C27.4783 125.372 28.3541 125.286 29.1501 124.956C29.9461 124.626 30.6264 124.068 31.1052 123.352C31.584 122.636 31.8396 121.794 31.8398 120.932C31.8399 120.36 31.7274 119.794 31.5085 119.265C31.2897 118.736 30.9688 118.256 30.5643 117.851C30.1598 117.447 29.6796 117.126 29.151 116.907C28.6224 116.688 28.0559 116.575 27.4838 116.575ZM27.4838 122.695C27.1351 122.695 26.7943 122.592 26.5043 122.398C26.2144 122.204 25.9884 121.929 25.855 121.607C25.7216 121.285 25.6867 120.93 25.7547 120.588C25.8227 120.246 25.9906 119.932 26.2372 119.686C26.4837 119.439 26.7979 119.271 27.1399 119.203C27.4818 119.135 27.8363 119.17 28.1585 119.303C28.4806 119.437 28.756 119.663 28.9497 119.953C29.1434 120.243 29.2468 120.584 29.2468 120.932C29.2472 121.164 29.2019 121.394 29.1135 121.608C29.025 121.822 28.8953 122.017 28.7315 122.181C28.5678 122.345 28.3733 122.475 28.1592 122.564C27.9451 122.653 27.7156 122.698 27.4838 122.698V122.695Z" fill="#F9EEDD"/>
<path d="M144.231 134.205C143.369 134.205 142.527 134.461 141.811 134.939C141.094 135.418 140.536 136.098 140.206 136.894C139.877 137.69 139.79 138.566 139.958 139.411C140.127 140.256 140.541 141.032 141.151 141.641C141.76 142.251 142.536 142.666 143.381 142.834C144.226 143.002 145.102 142.915 145.898 142.586C146.694 142.256 147.374 141.698 147.853 140.981C148.331 140.265 148.587 139.423 148.587 138.561C148.587 137.406 148.128 136.298 147.311 135.481C146.494 134.664 145.386 134.205 144.231 134.205ZM144.231 140.325C143.882 140.325 143.541 140.222 143.251 140.028C142.961 139.835 142.736 139.559 142.602 139.237C142.469 138.915 142.434 138.561 142.502 138.219C142.57 137.877 142.737 137.563 142.984 137.316C143.23 137.069 143.544 136.901 143.886 136.833C144.228 136.765 144.583 136.8 144.905 136.933C145.227 137.066 145.502 137.292 145.696 137.582C145.89 137.872 145.994 138.213 145.994 138.561C145.994 139.029 145.808 139.477 145.477 139.808C145.147 140.139 144.698 140.325 144.231 140.325V140.325Z" fill="#F9EEDD"/>
<path d="M179.874 66.5373C179.214 66.5373 178.569 66.7329 178.02 67.0995C177.472 67.4661 177.044 67.9871 176.792 68.5966C176.539 69.2062 176.473 69.877 176.602 70.5241C176.731 71.1712 177.048 71.7656 177.515 72.2322C177.981 72.6987 178.576 73.0165 179.223 73.1452C179.87 73.2739 180.541 73.2078 181.15 72.9554C181.76 72.7029 182.281 72.2753 182.648 71.7267C183.014 71.1781 183.21 70.5331 183.21 69.8733C183.21 68.9885 182.858 68.14 182.233 67.5144C181.607 66.8888 180.759 66.5373 179.874 66.5373V66.5373ZM179.874 71.2233C179.607 71.2233 179.346 71.1441 179.124 70.9958C178.902 70.8474 178.729 70.6366 178.627 70.3899C178.524 70.1432 178.498 69.8718 178.55 69.6099C178.602 69.348 178.73 69.1075 178.919 68.9187C179.108 68.7299 179.349 68.6013 179.61 68.5492C179.872 68.4971 180.144 68.5239 180.39 68.6261C180.637 68.7282 180.848 68.9013 180.996 69.1233C181.145 69.3453 181.224 69.6063 181.224 69.8733C181.224 70.2313 181.082 70.5747 180.828 70.8279C180.575 71.0811 180.232 71.2233 179.874 71.2233Z" fill="#F9EEDD"/>
<path d="M121.137 13.1753C120.439 13.1753 119.757 13.3822 119.177 13.77C118.597 14.1577 118.145 14.7088 117.878 15.3535C117.611 15.9982 117.542 16.7076 117.678 17.3918C117.814 18.0761 118.151 18.7046 118.644 19.1977C119.138 19.6908 119.767 20.0264 120.451 20.162C121.136 20.2976 121.845 20.2272 122.489 19.9597C123.134 19.6921 123.684 19.2394 124.071 18.6589C124.458 18.0783 124.665 17.396 124.664 16.6983C124.663 15.7636 124.291 14.8675 123.629 14.2069C122.968 13.5463 122.072 13.1753 121.137 13.1753V13.1753ZM121.137 18.1303C120.855 18.1303 120.579 18.0467 120.345 17.8901C120.11 17.7335 119.927 17.511 119.819 17.2505C119.711 16.9901 119.682 16.7034 119.737 16.4267C119.792 16.15 119.927 15.8958 120.126 15.696C120.325 15.4962 120.579 15.3599 120.855 15.3043C121.132 15.2487 121.419 15.2762 121.679 15.3835C121.94 15.4907 122.164 15.6728 122.321 15.9068C122.478 16.1409 122.563 16.4163 122.564 16.6983C122.564 16.8861 122.528 17.0721 122.456 17.2458C122.385 17.4194 122.28 17.5772 122.147 17.7103C122.015 17.8433 121.857 17.9488 121.684 18.0209C121.511 18.093 121.325 18.1301 121.137 18.1303V18.1303Z" fill="#F9EEDD"/>
<path d="M8.31785 95.3543C7.58452 95.3545 6.86771 95.5721 6.25806 95.9797C5.64842 96.3872 5.17331 96.9664 4.89281 97.644C4.61232 98.3215 4.53902 99.0671 4.68221 99.7863C4.8254 100.506 5.17863 101.166 5.69724 101.685C6.21585 102.203 6.87656 102.556 7.59582 102.699C8.31507 102.842 9.06057 102.769 9.73806 102.488C10.4155 102.207 10.9946 101.732 11.402 101.122C11.8094 100.512 12.0268 99.7956 12.0268 99.0623C12.0268 98.5752 11.9309 98.093 11.7445 97.6431C11.5581 97.1931 11.2849 96.7843 10.9404 96.44C10.596 96.0956 10.1871 95.8225 9.73714 95.6362C9.28715 95.45 8.80487 95.3541 8.31785 95.3543Z" fill="#EC7D19"/>
<path d="M157.094 107.629C156.56 107.629 156.038 107.788 155.594 108.084C155.15 108.381 154.804 108.803 154.599 109.296C154.395 109.789 154.341 110.332 154.446 110.856C154.55 111.38 154.807 111.861 155.185 112.238C155.562 112.616 156.043 112.873 156.567 112.977C157.091 113.082 157.634 113.028 158.127 112.824C158.62 112.619 159.042 112.273 159.339 111.829C159.635 111.385 159.794 110.863 159.794 110.329C159.794 109.613 159.509 108.926 159.003 108.42C158.497 107.914 157.81 107.629 157.094 107.629Z" fill="#EC7D19"/>
<path d="M67.7778 14.2843C66.9981 14.2843 66.236 14.5155 65.5878 14.9486C64.9395 15.3818 64.4342 15.9974 64.1359 16.7177C63.8375 17.438 63.7595 18.2307 63.9116 18.9953C64.0637 19.76 64.4391 20.4624 64.9904 21.0137C65.5417 21.565 66.2441 21.9404 67.0088 22.0925C67.7734 22.2446 68.566 22.1666 69.2863 21.8682C70.0067 21.5698 70.6223 21.0646 71.0555 20.4163C71.4886 19.7681 71.7198 19.0059 71.7198 18.2263C71.7198 17.1808 71.3045 16.1781 70.5652 15.4389C69.826 14.6996 68.8233 14.2843 67.7778 14.2843V14.2843Z" fill="#EC7D19"/>
<path d="M88.8808 157.072C88.3128 157.072 87.7576 157.241 87.2853 157.556C86.813 157.872 86.4449 158.32 86.2275 158.845C86.0101 159.37 85.9532 159.947 86.0639 160.504C86.1746 161.061 86.4481 161.573 86.8496 161.975C87.2512 162.376 87.7628 162.65 88.3199 162.761C88.8769 162.872 89.4544 162.815 89.9792 162.598C90.504 162.381 90.9526 162.013 91.2683 161.541C91.584 161.068 91.7526 160.513 91.7528 159.945C91.7528 159.183 91.4502 158.453 90.9117 157.914C90.3731 157.375 89.6426 157.073 88.8808 157.072Z" fill="#EC7D19"/>
<path d="M144.482 29.4883C143.815 29.4883 143.163 29.6861 142.608 30.0566C142.054 30.4271 141.622 30.9537 141.367 31.5699C141.111 32.186 141.045 32.864 141.175 33.5181C141.305 34.1722 141.626 34.7731 142.098 35.2447C142.569 35.7162 143.17 36.0374 143.824 36.1675C144.478 36.2976 145.156 36.2308 145.772 35.9756C146.388 35.7204 146.915 35.2882 147.286 34.7337C147.656 34.1791 147.854 33.5272 147.854 32.8603C147.854 31.966 147.499 31.1083 146.866 30.4759C146.234 29.8435 145.376 29.4883 144.482 29.4883V29.4883Z" fill="#EC7D19"/>
<path d="M25.0638 59.5383C26.1237 59.5383 26.9828 58.6791 26.9828 57.6193C26.9828 56.5594 26.1237 55.7003 25.0638 55.7003C24.004 55.7003 23.1448 56.5594 23.1448 57.6193C23.1448 58.6791 24.004 59.5383 25.0638 59.5383Z" fill="#EC7D19"/>
<path d="M181.039 49.7243C180.391 49.7237 179.758 49.9152 179.219 50.2746C178.68 50.634 178.26 51.1451 178.012 51.7433C177.764 52.3415 177.698 52.9999 177.824 53.6352C177.95 54.2705 178.262 54.8541 178.72 55.3123C179.177 55.7705 179.761 56.0826 180.396 56.2091C181.031 56.3357 181.69 56.2711 182.288 56.0234C182.886 55.7756 183.398 55.356 183.758 54.8175C184.118 54.2791 184.31 53.6459 184.31 52.9983C184.31 52.1305 183.965 51.2982 183.352 50.6843C182.739 50.0704 181.907 49.7251 181.039 49.7243V49.7243Z" fill="#EC7D19"/>
<path d="M6.47883 71.2273C7.63255 71.2273 8.56783 70.292 8.56783 69.1383C8.56783 67.9846 7.63255 67.0493 6.47883 67.0493C5.32511 67.0493 4.38983 67.9846 4.38983 69.1383C4.38983 70.292 5.32511 71.2273 6.47883 71.2273Z" fill="#EC7D19"/>
<path d="M94.2978 7.28028L95.6098 5.96828C95.7184 5.85974 95.8046 5.73088 95.8634 5.58904C95.9222 5.44721 95.9525 5.29517 95.9525 5.14163C95.9526 4.98809 95.9224 4.83605 95.8637 4.69418C95.8049 4.5523 95.7188 4.42338 95.6103 4.31478C95.5018 4.20618 95.3729 4.12002 95.2311 4.06122C95.0892 4.00242 94.9372 3.97212 94.7837 3.97208C94.6301 3.97203 94.4781 4.00223 94.3362 4.06094C94.1943 4.11966 94.0654 4.20574 93.9568 4.31428L92.6448 5.62628L91.3328 4.31428C91.1115 4.10484 90.8172 3.99001 90.5125 3.99422C90.2078 3.99842 89.9168 4.12133 89.7013 4.33679C89.4859 4.55226 89.363 4.84328 89.3588 5.14796C89.3546 5.45265 89.4694 5.74695 89.6788 5.96828L90.9908 7.28028L89.6788 8.59228C89.5652 8.69975 89.4744 8.8289 89.4115 8.97209C89.3487 9.11528 89.3153 9.26962 89.3131 9.42596C89.3109 9.58231 89.3402 9.73751 89.399 9.88238C89.4578 10.0272 89.5451 10.1589 89.6557 10.2694C89.7662 10.38 89.8978 10.4673 90.0427 10.5261C90.1876 10.5849 90.3428 10.6141 90.4991 10.612C90.6555 10.6098 90.8098 10.5764 90.953 10.5135C91.0962 10.4507 91.2253 10.3599 91.3328 10.2463L92.6448 8.93428L93.9568 10.2463C94.0654 10.3548 94.1943 10.4409 94.3362 10.4996C94.4781 10.5583 94.6301 10.5885 94.7837 10.5885C94.9372 10.5884 95.0892 10.5581 95.2311 10.4993C95.3729 10.4405 95.5018 10.3544 95.6103 10.2458C95.7188 10.1372 95.8049 10.0083 95.8637 9.86639C95.9224 9.72451 95.9526 9.57247 95.9525 9.41893C95.9525 9.26539 95.9222 9.11336 95.8634 8.97152C95.8046 8.82968 95.7184 8.70082 95.6098 8.59228L94.2978 7.28028Z" fill="#F9EEDD"/>
<path d="M4.98583 46.9303L6.29783 45.6183C6.4114 45.5108 6.50228 45.3817 6.5651 45.2385C6.62791 45.0953 6.66139 44.941 6.66355 44.7846C6.66571 44.6283 6.6365 44.4731 6.57766 44.3282C6.51882 44.1833 6.43154 44.0517 6.32097 43.9411C6.21041 43.8306 6.07879 43.7433 5.93392 43.6845C5.78905 43.6256 5.63386 43.5964 5.47751 43.5986C5.32116 43.6007 5.16683 43.6342 5.02364 43.697C4.88045 43.7598 4.75131 43.8507 4.64383 43.9643L3.33182 45.2763L2.01983 43.9643C1.91235 43.8507 1.78321 43.7598 1.64002 43.697C1.49683 43.6342 1.3425 43.6007 1.18615 43.5986C1.0298 43.5964 0.874596 43.6256 0.729726 43.6845C0.584855 43.7433 0.453252 43.8306 0.342686 43.9411C0.232121 44.0517 0.144843 44.1833 0.0860031 44.3282C0.0271633 44.4731 -0.00204588 44.6283 0.000111343 44.7846C0.00226856 44.941 0.0357467 45.0953 0.098561 45.2385C0.161375 45.3817 0.25226 45.5108 0.365834 45.6183L1.67783 46.9303L0.365834 48.2423C0.156396 48.4636 0.0415618 48.7579 0.0457656 49.0626C0.0499695 49.3673 0.172876 49.6583 0.388341 49.8738C0.603806 50.0892 0.894829 50.2121 1.19951 50.2164C1.5042 50.2206 1.7985 50.1057 2.01983 49.8963L3.33182 48.5843L4.64383 49.8963C4.75131 50.0099 4.88045 50.1007 5.02364 50.1636C5.16683 50.2264 5.32116 50.2598 5.47751 50.262C5.63386 50.2642 5.78905 50.235 5.93392 50.1761C6.07879 50.1173 6.21041 50.03 6.32097 49.9194C6.43154 49.8089 6.51882 49.6772 6.57766 49.5324C6.6365 49.3875 6.66571 49.2323 6.66355 49.076C6.66139 48.9196 6.62791 48.7653 6.5651 48.6221C6.50228 48.4789 6.4114 48.3498 6.29783 48.2423L4.98583 46.9303Z" fill="#F9EEDD"/>
<path d="M159.733 127.047L160.845 125.936C161.017 125.748 161.109 125.501 161.103 125.246C161.097 124.991 160.994 124.748 160.813 124.568C160.633 124.388 160.39 124.284 160.135 124.278C159.88 124.272 159.633 124.364 159.445 124.536L158.334 125.647L157.223 124.536C157.034 124.364 156.787 124.272 156.532 124.278C156.277 124.284 156.035 124.388 155.854 124.568C155.674 124.748 155.57 124.991 155.564 125.246C155.558 125.501 155.651 125.748 155.823 125.936L156.934 127.047L155.823 128.158C155.724 128.249 155.644 128.358 155.589 128.48C155.533 128.602 155.503 128.734 155.5 128.868C155.497 129.002 155.521 129.135 155.571 129.259C155.62 129.384 155.695 129.497 155.79 129.591C155.884 129.686 155.997 129.761 156.122 129.81C156.246 129.86 156.379 129.884 156.513 129.881C156.647 129.878 156.779 129.848 156.901 129.792C157.023 129.737 157.132 129.657 157.223 129.558L158.334 128.447L159.445 129.558C159.535 129.657 159.644 129.737 159.766 129.792C159.888 129.848 160.02 129.878 160.154 129.881C160.288 129.884 160.421 129.86 160.546 129.81C160.67 129.761 160.783 129.686 160.878 129.591C160.973 129.497 161.047 129.384 161.097 129.259C161.147 129.135 161.171 129.002 161.168 128.868C161.165 128.734 161.134 128.602 161.079 128.48C161.023 128.358 160.944 128.249 160.845 128.158L159.733 127.047Z" fill="#F9EEDD"/>
</svg>
