<svg width="16" height="13" viewBox="0 0 16 13" fill="none" xmlns="http://www.w3.org/2000/svg">
<path d="M15.8351 5.90782L16 5.6387L15.8351 5.36944C15.8075 5.3245 15.1442 4.25391 13.8556 3.18103C12.1417 1.75424 10.1226 1 8.01643 1C5.9108 1 3.88674 1.75384 2.16305 3.17996C0.867073 4.2523 0.196275 5.32208 0.16837 5.36716L0 5.6387L0.16837 5.91024C0.196275 5.95532 0.867073 7.0251 2.16305 8.09744C3.88674 9.52356 5.9108 10.2774 8.01643 10.2774C10.1226 10.2774 12.1417 9.52316 13.8556 8.09637C15.1442 7.02349 15.8075 5.9529 15.8351 5.90782V5.90782ZM13.169 7.3271C11.6272 8.60108 9.89359 9.24692 8.01643 9.24692C6.1386 9.24692 4.39936 8.60067 2.84713 7.32589C2.04432 6.66663 1.50004 5.99905 1.23346 5.6387C1.50017 5.27808 2.04446 4.61064 2.84713 3.95138C4.39936 2.67673 6.13847 2.03035 8.01643 2.03035C9.89359 2.03035 11.6271 2.67632 13.169 3.95017C13.9682 4.6105 14.5077 5.27902 14.7707 5.6387C14.5075 5.99852 13.968 6.66703 13.169 7.3271Z" fill="#302A97"/>
<path d="M5.40541 5.63869C5.40541 4.20792 6.57024 3.04309 8.00101 3.04309C9.43178 3.04309 10.5966 4.20792 10.5966 5.63869C10.5966 7.06946 9.43178 8.23428 8.00101 8.23428C6.57024 8.23428 5.40541 7.06946 5.40541 5.63869Z" stroke="#FF7800"/>
<rect x="14.5261" y="0.353486" width="1.5" height="15.5" rx="0.75" transform="rotate(46.1219 14.5261 0.353486)" fill="#302A97" stroke="white" stroke-width="0.5"/>
</svg>
