<svg width="24" height="24" viewBox="0 0 24 24" fill="none" xmlns="http://www.w3.org/2000/svg">
<path fill-rule="evenodd" clip-rule="evenodd" d="M11.9999 22.9999C11.9999 22.4476 11.5522 21.9999 10.9999 21.9999H2.99998C2.4477 21.9999 1.99999 21.5522 1.99999 20.9999V2.99998C1.99999 2.4477 2.4477 1.99999 2.99998 1.99999H10.9999C11.5522 1.99999 11.9999 1.55228 11.9999 0.999994C11.9999 0.447713 11.5522 0 10.9999 0H2.99998C1.34314 0 0 1.34314 0 2.99998V20.9999C0 22.6567 1.34314 23.9999 2.99998 23.9999H10.9999C11.5522 23.9999 11.9999 23.5521 11.9999 22.9999ZM6.99993 13H20.5858L16.2929 17.2928C15.9024 17.6833 15.9024 18.3165 16.2929 18.707C16.6834 19.0975 17.3166 19.0975 17.7071 18.707L23.7071 12.7071C24.0976 12.3165 24.0976 11.6834 23.7071 11.2929L17.7071 5.29289C17.3166 4.90237 16.6834 4.90237 16.2929 5.29289C15.9024 5.68341 15.9024 6.31657 16.2929 6.7071L20.5858 11H6.99993C6.44765 11 5.99994 11.4477 5.99994 12C5.99994 12.5522 6.44765 13 6.99993 13Z" fill="#868596"/>
</svg>
