<svg width="28" height="24" viewBox="0 0 28 24" fill="none" xmlns="http://www.w3.org/2000/svg">
<path fill-rule="evenodd" clip-rule="evenodd" d="M10.3793 0.102983C9.22448 0.472238 8.4216 1.5426 8.4216 2.71293C8.4216 3.16924 8.49258 3.35469 8.75027 3.57153C9.18335 3.93592 9.82222 3.83754 10.1167 3.36104C10.1799 3.25888 10.2493 3.00972 10.2778 2.78353C10.3299 2.36784 10.4193 2.19519 10.6848 1.99689C10.8324 1.88664 10.9038 1.88374 13.8534 1.86805C15.513 1.85919 16.9514 1.86652 17.0498 1.8844C17.1483 1.90223 17.3129 1.99071 17.4156 2.08095C17.6123 2.25365 17.6874 2.42953 17.7443 2.85085C17.7901 3.19068 17.9668 3.44307 18.2638 3.59313C18.5585 3.742 18.7668 3.74686 19.0639 3.612C19.4081 3.45565 19.546 3.22005 19.5699 2.74754C19.6285 1.5846 18.7667 0.444074 17.5583 0.0855372C17.299 0.00859082 16.8437 -0.00223737 13.9762 0.000332977C10.9527 0.0030127 10.6663 0.0112159 10.3793 0.102983ZM3.8187 3.66128C2.92116 3.82365 2.15257 4.22123 1.4635 4.87957C1.22506 5.1074 0.908905 5.47819 0.760864 5.70367C0.532157 6.05203 0.491797 6.15321 0.491797 6.37803C0.491797 7.35219 1.64785 7.68841 2.19818 6.87427C2.68288 6.1572 3.39082 5.64127 4.09023 5.49542C4.4999 5.40999 23.4997 5.40999 23.9094 5.49542C24.8256 5.6865 25.6543 6.41773 25.9842 7.32616C26.0849 7.60332 26.1026 7.7757 26.1075 8.52487L26.1133 9.39989L20.5077 11.0053L14.9022 12.6106L14.2334 12.6396C13.809 12.6579 13.4392 12.644 13.2216 12.6014C13.033 12.5646 10.6884 11.9112 8.01144 11.1496C1.10978 9.18605 1.19153 9.20848 0.92996 9.20848C0.593572 9.20848 0.2597 9.41667 0.114229 9.71719C0.00069654 9.95164 -0.000397223 9.9973 4.02833e-05 14.4075C0.000259036 17.1807 0.0215875 18.9951 0.0565333 19.2164C0.358413 21.1298 1.82406 22.6734 3.71676 23.0716C4.29564 23.1934 23.6903 23.1963 24.2683 23.0746C25.975 22.7157 27.2912 21.4976 27.8171 19.7907L27.9687 19.2985L27.9877 16.5914C27.9982 15.1025 27.9918 13.8038 27.9734 13.7054C27.9267 13.4556 27.6579 13.1706 27.3625 13.0578C27.1474 12.9757 27.0779 12.9719 26.8592 13.0301C26.6095 13.0968 26.3567 13.2866 26.2316 13.5015C26.1866 13.5788 26.1592 14.4135 26.1384 16.3453C26.1096 19.0051 26.1055 19.0887 25.9864 19.4078C25.7423 20.0623 25.2356 20.6574 24.6625 20.9628C24.0006 21.3156 24.6775 21.2946 14.0008 21.2946C4.71045 21.2946 4.27442 21.2902 3.92436 21.1931C3.05684 20.9526 2.34064 20.2841 2.00929 19.4057C1.88662 19.0805 1.88629 19.0706 1.8706 15.2062C1.85501 11.373 1.85594 11.333 1.96264 11.3669C2.6982 11.6003 12.4404 14.3619 12.742 14.4225C13.7081 14.6164 14.7051 14.5841 15.681 14.327C17.6306 13.8136 27.4467 10.9701 27.584 10.879C27.6774 10.817 27.8093 10.6566 27.877 10.5226C27.9935 10.2919 28 10.2153 28 9.06623C28 8.19308 27.976 7.72664 27.9142 7.40103C27.737 6.46701 27.3589 5.73331 26.6985 5.0421C25.9985 4.30934 25.2292 3.87992 24.2574 3.67933C23.7834 3.58149 23.3331 3.57722 13.9998 3.58122C5.92754 3.58466 4.16537 3.59855 3.8187 3.66128Z" fill="#868596"/>
</svg>
