<svg width="30" height="35" viewBox="0 0 30 35" fill="none" xmlns="http://www.w3.org/2000/svg">
<path d="M15 0.95C10.3407 0.95 6.55004 4.74063 6.55004 9.4C6.55004 14.0594 10.3407 17.85 15 17.85C19.6594 17.85 23.45 14.0594 23.45 9.4C23.45 4.74063 19.6594 0.95 15 0.95ZM15 15.8833C11.4252 15.8833 8.5167 12.9749 8.5167 9.4C8.5167 5.82513 11.4252 2.91667 15 2.91667C18.5749 2.91667 21.4834 5.82513 21.4834 9.4C21.4834 12.9749 18.5749 15.8833 15 15.8833Z" fill="#868596" stroke="white" stroke-width="0.1"/>
<path d="M25.4868 24.4192C23.1778 22.0747 20.1164 20.7833 16.8667 20.7833H13.1333C9.8837 20.7833 6.82215 22.0747 4.51316 24.4192C2.21552 26.7521 0.95 29.8319 0.95 33.091C0.95 33.6341 1.39027 34.0744 1.93333 34.0744H28.0667C28.6097 34.0744 29.05 33.6341 29.05 33.091C29.05 29.8319 27.7845 26.7521 25.4868 24.4192ZM27.0375 32.1077H2.96249C3.45315 26.8644 7.82789 22.7499 13.1333 22.7499H16.8667C22.1721 22.7499 26.5468 26.8644 27.0375 32.1077Z" fill="#868596" stroke="white" stroke-width="0.1"/>
</svg>
